<mxfile host="Electron" modified="2024-04-26T09:21:46.001Z" agent="Mozilla/5.0 (Windows NT 10.0; Win64; x64) AppleWebKit/537.36 (KHTML, like Gecko) draw.io/24.2.5 Chrome/120.0.6099.109 Electron/28.1.0 Safari/537.36" etag="GL_xg3BUqR84D_kLHkG3" version="24.2.5" type="device">
  <diagram id="C5RBs43oDa-KdzZeNtuy" name="Page-1">
    <mxGraphModel dx="3341" dy="2162" grid="1" gridSize="10" guides="1" tooltips="1" connect="1" arrows="1" fold="1" page="1" pageScale="1" pageWidth="827" pageHeight="1169" math="0" shadow="0">
      <root>
        <mxCell id="WIyWlLk6GJQsqaUBKTNV-0" />
        <mxCell id="WIyWlLk6GJQsqaUBKTNV-1" parent="WIyWlLk6GJQsqaUBKTNV-0" />
        <mxCell id="QtHYeWqMQfSoIZGzqopW-140" value="" style="rounded=0;whiteSpace=wrap;html=1;fillColor=none;sketch=1;curveFitting=1;jiggle=2;" parent="WIyWlLk6GJQsqaUBKTNV-1" vertex="1">
          <mxGeometry x="-534" y="1358" width="200" height="242" as="geometry" />
        </mxCell>
        <mxCell id="QtHYeWqMQfSoIZGzqopW-124" value="" style="rounded=0;whiteSpace=wrap;html=1;fillColor=none;sketch=1;curveFitting=1;jiggle=2;" parent="WIyWlLk6GJQsqaUBKTNV-1" vertex="1">
          <mxGeometry x="-550" y="620" width="220" height="610" as="geometry" />
        </mxCell>
        <mxCell id="QtHYeWqMQfSoIZGzqopW-123" value="" style="rounded=0;whiteSpace=wrap;html=1;fillColor=none;sketch=1;curveFitting=1;jiggle=2;" parent="WIyWlLk6GJQsqaUBKTNV-1" vertex="1">
          <mxGeometry x="-954" y="591" width="394" height="230" as="geometry" />
        </mxCell>
        <mxCell id="kSVlAso--FQVxlNCZ38y-25" value="" style="group;rounded=1;glass=0;fontColor=#666666;" parent="WIyWlLk6GJQsqaUBKTNV-1" vertex="1" connectable="0">
          <mxGeometry x="365" y="-74" width="150" height="170" as="geometry" />
        </mxCell>
        <mxCell id="kSVlAso--FQVxlNCZ38y-20" value="" style="rounded=0;whiteSpace=wrap;html=1;fillColor=none;sketch=1;curveFitting=1;jiggle=2;fontColor=#666666;" parent="kSVlAso--FQVxlNCZ38y-25" vertex="1">
          <mxGeometry width="150" height="170" as="geometry" />
        </mxCell>
        <mxCell id="kSVlAso--FQVxlNCZ38y-19" value="" style="edgeStyle=orthogonalEdgeStyle;rounded=0;orthogonalLoop=1;jettySize=auto;html=1;fontColor=#666666;" parent="kSVlAso--FQVxlNCZ38y-25" source="kSVlAso--FQVxlNCZ38y-17" target="kSVlAso--FQVxlNCZ38y-18" edge="1">
          <mxGeometry relative="1" as="geometry" />
        </mxCell>
        <mxCell id="kSVlAso--FQVxlNCZ38y-17" value="load from_pretrained" style="rounded=1;whiteSpace=wrap;html=1;fontSize=12;glass=0;strokeWidth=1;shadow=1;fillColor=#dae8fc;strokeColor=#6c8ebf;sketch=1;curveFitting=1;jiggle=2;fontColor=#666666;" parent="kSVlAso--FQVxlNCZ38y-25" vertex="1">
          <mxGeometry x="15" y="20" width="120" height="40" as="geometry" />
        </mxCell>
        <mxCell id="kSVlAso--FQVxlNCZ38y-18" value="绑定_pad" style="rounded=1;whiteSpace=wrap;html=1;fontSize=12;glass=0;strokeWidth=1;shadow=1;fillColor=#dae8fc;strokeColor=#6c8ebf;sketch=1;curveFitting=1;jiggle=2;fontColor=#666666;" parent="kSVlAso--FQVxlNCZ38y-25" vertex="1">
          <mxGeometry x="15" y="100" width="120" height="40" as="geometry" />
        </mxCell>
        <mxCell id="QtHYeWqMQfSoIZGzqopW-11" value="" style="rounded=0;whiteSpace=wrap;html=1;fillColor=none;sketch=1;curveFitting=1;jiggle=2;fontColor=#666666;" parent="WIyWlLk6GJQsqaUBKTNV-1" vertex="1">
          <mxGeometry x="-268" y="75" width="270" height="620" as="geometry" />
        </mxCell>
        <mxCell id="QtHYeWqMQfSoIZGzqopW-7" value="" style="rounded=0;whiteSpace=wrap;html=1;fillColor=none;sketch=1;curveFitting=1;jiggle=2;fontColor=#666666;" parent="WIyWlLk6GJQsqaUBKTNV-1" vertex="1">
          <mxGeometry x="-242" y="158" width="210" height="237" as="geometry" />
        </mxCell>
        <mxCell id="kSVlAso--FQVxlNCZ38y-16" value="" style="rounded=0;whiteSpace=wrap;html=1;strokeWidth=1;perimeterSpacing=0;strokeColor=default;fillColor=none;sketch=1;curveFitting=1;jiggle=2;fontColor=#666666;" parent="WIyWlLk6GJQsqaUBKTNV-1" vertex="1">
          <mxGeometry x="100" y="60" width="240" height="790" as="geometry" />
        </mxCell>
        <mxCell id="kSVlAso--FQVxlNCZ38y-1" value="" style="edgeStyle=orthogonalEdgeStyle;rounded=0;orthogonalLoop=1;jettySize=auto;html=1;sketch=1;curveFitting=1;jiggle=2;fontColor=#666666;" parent="WIyWlLk6GJQsqaUBKTNV-1" source="WIyWlLk6GJQsqaUBKTNV-3" target="kSVlAso--FQVxlNCZ38y-0" edge="1">
          <mxGeometry relative="1" as="geometry" />
        </mxCell>
        <mxCell id="kSVlAso--FQVxlNCZ38y-22" style="rounded=0;orthogonalLoop=1;jettySize=auto;html=1;exitX=1;exitY=0.5;exitDx=0;exitDy=0;entryX=0;entryY=0;entryDx=0;entryDy=0;sketch=1;curveFitting=1;jiggle=2;fontColor=#666666;" parent="WIyWlLk6GJQsqaUBKTNV-1" source="WIyWlLk6GJQsqaUBKTNV-3" target="kSVlAso--FQVxlNCZ38y-20" edge="1">
          <mxGeometry relative="1" as="geometry" />
        </mxCell>
        <mxCell id="kSVlAso--FQVxlNCZ38y-23" style="rounded=0;orthogonalLoop=1;jettySize=auto;html=1;exitX=1;exitY=1;exitDx=0;exitDy=0;entryX=0;entryY=1;entryDx=0;entryDy=0;sketch=1;curveFitting=1;jiggle=2;fontColor=#666666;" parent="WIyWlLk6GJQsqaUBKTNV-1" source="WIyWlLk6GJQsqaUBKTNV-3" target="kSVlAso--FQVxlNCZ38y-20" edge="1">
          <mxGeometry relative="1" as="geometry" />
        </mxCell>
        <mxCell id="WIyWlLk6GJQsqaUBKTNV-3" value="load tokenizer" style="rounded=1;whiteSpace=wrap;html=1;fontSize=12;glass=0;strokeWidth=1;shadow=1;fillColor=#dae8fc;strokeColor=#6c8ebf;sketch=1;curveFitting=1;jiggle=2;fontColor=#666666;" parent="WIyWlLk6GJQsqaUBKTNV-1" vertex="1">
          <mxGeometry x="160" y="124" width="120" height="40" as="geometry" />
        </mxCell>
        <mxCell id="kSVlAso--FQVxlNCZ38y-3" value="" style="edgeStyle=orthogonalEdgeStyle;rounded=0;orthogonalLoop=1;jettySize=auto;html=1;sketch=1;curveFitting=1;jiggle=2;fontColor=#666666;" parent="WIyWlLk6GJQsqaUBKTNV-1" source="kSVlAso--FQVxlNCZ38y-0" target="kSVlAso--FQVxlNCZ38y-2" edge="1">
          <mxGeometry relative="1" as="geometry" />
        </mxCell>
        <mxCell id="QtHYeWqMQfSoIZGzqopW-13" style="rounded=0;orthogonalLoop=1;jettySize=auto;html=1;exitX=0;exitY=1;exitDx=0;exitDy=0;entryX=1.019;entryY=0.972;entryDx=0;entryDy=0;entryPerimeter=0;sketch=1;curveFitting=1;jiggle=2;flowAnimation=0;shadow=0;fontColor=#666666;" parent="WIyWlLk6GJQsqaUBKTNV-1" source="kSVlAso--FQVxlNCZ38y-0" target="QtHYeWqMQfSoIZGzqopW-11" edge="1">
          <mxGeometry relative="1" as="geometry">
            <mxPoint x="20" y="430" as="targetPoint" />
          </mxGeometry>
        </mxCell>
        <mxCell id="kSVlAso--FQVxlNCZ38y-0" value="load dataset" style="rounded=1;whiteSpace=wrap;html=1;fontSize=12;glass=0;strokeWidth=1;shadow=1;fillColor=#dae8fc;strokeColor=#6c8ebf;sketch=1;curveFitting=1;jiggle=2;fontColor=#666666;" parent="WIyWlLk6GJQsqaUBKTNV-1" vertex="1">
          <mxGeometry x="160" y="209" width="120" height="40" as="geometry" />
        </mxCell>
        <mxCell id="kSVlAso--FQVxlNCZ38y-5" value="" style="edgeStyle=orthogonalEdgeStyle;rounded=0;orthogonalLoop=1;jettySize=auto;html=1;sketch=1;curveFitting=1;jiggle=2;fontColor=#666666;" parent="WIyWlLk6GJQsqaUBKTNV-1" source="kSVlAso--FQVxlNCZ38y-2" target="kSVlAso--FQVxlNCZ38y-4" edge="1">
          <mxGeometry relative="1" as="geometry" />
        </mxCell>
        <mxCell id="kSVlAso--FQVxlNCZ38y-2" value="load model" style="rounded=1;whiteSpace=wrap;html=1;fontSize=12;glass=0;strokeWidth=1;shadow=1;fillColor=#dae8fc;strokeColor=#6c8ebf;sketch=1;curveFitting=1;jiggle=2;fontColor=#666666;" parent="WIyWlLk6GJQsqaUBKTNV-1" vertex="1">
          <mxGeometry x="160" y="293" width="120" height="40" as="geometry" />
        </mxCell>
        <mxCell id="kSVlAso--FQVxlNCZ38y-7" value="" style="edgeStyle=orthogonalEdgeStyle;rounded=0;orthogonalLoop=1;jettySize=auto;html=1;sketch=1;curveFitting=1;jiggle=2;fontColor=#666666;" parent="WIyWlLk6GJQsqaUBKTNV-1" source="kSVlAso--FQVxlNCZ38y-4" target="kSVlAso--FQVxlNCZ38y-6" edge="1">
          <mxGeometry relative="1" as="geometry" />
        </mxCell>
        <mxCell id="kSVlAso--FQVxlNCZ38y-4" value="构建DataCollatorForSeq2Seq" style="rounded=1;whiteSpace=wrap;html=1;fontSize=12;glass=0;strokeWidth=1;shadow=1;fillColor=#dae8fc;strokeColor=#6c8ebf;sketch=1;curveFitting=1;jiggle=2;fontColor=#666666;" parent="WIyWlLk6GJQsqaUBKTNV-1" vertex="1">
          <mxGeometry x="150" y="378" width="140" height="40" as="geometry" />
        </mxCell>
        <mxCell id="kSVlAso--FQVxlNCZ38y-9" value="" style="edgeStyle=orthogonalEdgeStyle;rounded=0;orthogonalLoop=1;jettySize=auto;html=1;sketch=1;curveFitting=1;jiggle=2;fontColor=#666666;" parent="WIyWlLk6GJQsqaUBKTNV-1" source="kSVlAso--FQVxlNCZ38y-6" target="kSVlAso--FQVxlNCZ38y-8" edge="1">
          <mxGeometry relative="1" as="geometry" />
        </mxCell>
        <mxCell id="QtHYeWqMQfSoIZGzqopW-47" style="rounded=0;orthogonalLoop=1;jettySize=auto;html=1;exitX=1;exitY=0.75;exitDx=0;exitDy=0;entryX=0;entryY=0.75;entryDx=0;entryDy=0;sketch=1;curveFitting=1;jiggle=2;" parent="WIyWlLk6GJQsqaUBKTNV-1" source="kSVlAso--FQVxlNCZ38y-6" target="QtHYeWqMQfSoIZGzqopW-46" edge="1">
          <mxGeometry relative="1" as="geometry" />
        </mxCell>
        <mxCell id="kSVlAso--FQVxlNCZ38y-6" value="初始化trainer" style="rounded=1;whiteSpace=wrap;html=1;fontSize=12;glass=0;strokeWidth=1;shadow=1;fillColor=#dae8fc;strokeColor=#6c8ebf;sketch=1;curveFitting=1;jiggle=2;fontColor=#666666;" parent="WIyWlLk6GJQsqaUBKTNV-1" vertex="1">
          <mxGeometry x="160" y="462" width="120" height="40" as="geometry" />
        </mxCell>
        <mxCell id="kSVlAso--FQVxlNCZ38y-11" value="" style="edgeStyle=orthogonalEdgeStyle;rounded=0;orthogonalLoop=1;jettySize=auto;html=1;sketch=1;curveFitting=1;jiggle=2;fontColor=#666666;" parent="WIyWlLk6GJQsqaUBKTNV-1" source="kSVlAso--FQVxlNCZ38y-8" target="kSVlAso--FQVxlNCZ38y-10" edge="1">
          <mxGeometry relative="1" as="geometry" />
        </mxCell>
        <mxCell id="kSVlAso--FQVxlNCZ38y-8" value="训练" style="rounded=1;whiteSpace=wrap;html=1;fontSize=12;glass=0;strokeWidth=1;shadow=1;fillColor=#dae8fc;strokeColor=#6c8ebf;sketch=1;curveFitting=1;jiggle=2;fontColor=#666666;" parent="WIyWlLk6GJQsqaUBKTNV-1" vertex="1">
          <mxGeometry x="160" y="547" width="120" height="40" as="geometry" />
        </mxCell>
        <mxCell id="kSVlAso--FQVxlNCZ38y-13" value="" style="edgeStyle=orthogonalEdgeStyle;rounded=0;orthogonalLoop=1;jettySize=auto;html=1;sketch=1;curveFitting=1;jiggle=2;fontColor=#666666;" parent="WIyWlLk6GJQsqaUBKTNV-1" source="kSVlAso--FQVxlNCZ38y-10" target="kSVlAso--FQVxlNCZ38y-12" edge="1">
          <mxGeometry relative="1" as="geometry" />
        </mxCell>
        <mxCell id="kSVlAso--FQVxlNCZ38y-10" value="评估" style="rounded=1;whiteSpace=wrap;html=1;fontSize=12;glass=0;strokeWidth=1;shadow=1;fillColor=#dae8fc;strokeColor=#6c8ebf;sketch=1;curveFitting=1;jiggle=2;fontColor=#666666;" parent="WIyWlLk6GJQsqaUBKTNV-1" vertex="1">
          <mxGeometry x="160" y="631" width="120" height="40" as="geometry" />
        </mxCell>
        <mxCell id="kSVlAso--FQVxlNCZ38y-15" value="" style="edgeStyle=orthogonalEdgeStyle;rounded=0;orthogonalLoop=1;jettySize=auto;html=1;sketch=1;curveFitting=1;jiggle=2;fontColor=#666666;" parent="WIyWlLk6GJQsqaUBKTNV-1" source="kSVlAso--FQVxlNCZ38y-12" target="kSVlAso--FQVxlNCZ38y-14" edge="1">
          <mxGeometry relative="1" as="geometry" />
        </mxCell>
        <mxCell id="kSVlAso--FQVxlNCZ38y-12" value="预测" style="rounded=1;whiteSpace=wrap;html=1;fontSize=12;glass=0;strokeWidth=1;shadow=1;fillColor=#dae8fc;strokeColor=#6c8ebf;sketch=1;curveFitting=1;jiggle=2;fontColor=#666666;" parent="WIyWlLk6GJQsqaUBKTNV-1" vertex="1">
          <mxGeometry x="160" y="716" width="120" height="40" as="geometry" />
        </mxCell>
        <mxCell id="kSVlAso--FQVxlNCZ38y-14" value="保存模型" style="rounded=1;whiteSpace=wrap;html=1;fontSize=12;glass=0;strokeWidth=1;shadow=1;fillColor=#dae8fc;strokeColor=#6c8ebf;sketch=1;curveFitting=1;jiggle=2;fontColor=#666666;" parent="WIyWlLk6GJQsqaUBKTNV-1" vertex="1">
          <mxGeometry x="160" y="800" width="120" height="40" as="geometry" />
        </mxCell>
        <mxCell id="QtHYeWqMQfSoIZGzqopW-4" value="" style="edgeStyle=orthogonalEdgeStyle;rounded=0;orthogonalLoop=1;jettySize=auto;html=1;sketch=1;curveFitting=1;jiggle=2;fontColor=#666666;" parent="WIyWlLk6GJQsqaUBKTNV-1" source="kSVlAso--FQVxlNCZ38y-24" target="QtHYeWqMQfSoIZGzqopW-1" edge="1">
          <mxGeometry relative="1" as="geometry" />
        </mxCell>
        <mxCell id="QtHYeWqMQfSoIZGzqopW-54" style="rounded=0;orthogonalLoop=1;jettySize=auto;html=1;exitX=0;exitY=0;exitDx=0;exitDy=0;entryX=1;entryY=0;entryDx=0;entryDy=0;sketch=1;curveFitting=1;jiggle=2;" parent="WIyWlLk6GJQsqaUBKTNV-1" source="kSVlAso--FQVxlNCZ38y-24" target="QtHYeWqMQfSoIZGzqopW-52" edge="1">
          <mxGeometry relative="1" as="geometry" />
        </mxCell>
        <mxCell id="QtHYeWqMQfSoIZGzqopW-55" style="edgeStyle=none;rounded=0;orthogonalLoop=1;jettySize=auto;html=1;exitX=0;exitY=1;exitDx=0;exitDy=0;entryX=1;entryY=1;entryDx=0;entryDy=0;sketch=1;curveFitting=1;jiggle=2;" parent="WIyWlLk6GJQsqaUBKTNV-1" source="kSVlAso--FQVxlNCZ38y-24" target="QtHYeWqMQfSoIZGzqopW-52" edge="1">
          <mxGeometry relative="1" as="geometry" />
        </mxCell>
        <mxCell id="kSVlAso--FQVxlNCZ38y-24" value="加载模版" style="rounded=1;whiteSpace=wrap;html=1;fontSize=12;glass=0;strokeWidth=1;shadow=1;fillColor=#dae8fc;strokeColor=#6c8ebf;sketch=1;curveFitting=1;jiggle=2;fontColor=#666666;" parent="WIyWlLk6GJQsqaUBKTNV-1" vertex="1">
          <mxGeometry x="-188" y="105" width="120" height="40" as="geometry" />
        </mxCell>
        <mxCell id="QtHYeWqMQfSoIZGzqopW-3" value="" style="edgeStyle=orthogonalEdgeStyle;rounded=0;orthogonalLoop=1;jettySize=auto;html=1;sketch=1;curveFitting=1;jiggle=2;fontColor=#666666;" parent="WIyWlLk6GJQsqaUBKTNV-1" source="QtHYeWqMQfSoIZGzqopW-1" target="QtHYeWqMQfSoIZGzqopW-2" edge="1">
          <mxGeometry relative="1" as="geometry" />
        </mxCell>
        <mxCell id="QtHYeWqMQfSoIZGzqopW-66" style="rounded=0;orthogonalLoop=1;jettySize=auto;html=1;exitX=0;exitY=0.5;exitDx=0;exitDy=0;entryX=1.019;entryY=0.369;entryDx=0;entryDy=0;sketch=1;curveFitting=1;jiggle=2;entryPerimeter=0;" parent="WIyWlLk6GJQsqaUBKTNV-1" source="QtHYeWqMQfSoIZGzqopW-1" target="QtHYeWqMQfSoIZGzqopW-57" edge="1">
          <mxGeometry relative="1" as="geometry" />
        </mxCell>
        <mxCell id="QtHYeWqMQfSoIZGzqopW-1" value="数据列表" style="rounded=1;whiteSpace=wrap;html=1;fontSize=12;glass=0;strokeWidth=1;shadow=1;fillColor=#dae8fc;strokeColor=#6c8ebf;sketch=1;curveFitting=1;jiggle=2;fontColor=#666666;" parent="WIyWlLk6GJQsqaUBKTNV-1" vertex="1">
          <mxGeometry x="-188" y="178" width="120" height="40" as="geometry" />
        </mxCell>
        <mxCell id="QtHYeWqMQfSoIZGzqopW-9" value="" style="edgeStyle=orthogonalEdgeStyle;rounded=0;orthogonalLoop=1;jettySize=auto;html=1;sketch=1;curveFitting=1;jiggle=2;fontColor=#666666;" parent="WIyWlLk6GJQsqaUBKTNV-1" source="QtHYeWqMQfSoIZGzqopW-2" target="QtHYeWqMQfSoIZGzqopW-8" edge="1">
          <mxGeometry relative="1" as="geometry" />
        </mxCell>
        <mxCell id="QtHYeWqMQfSoIZGzqopW-2" value="加载数据" style="rounded=1;whiteSpace=wrap;html=1;fontSize=12;glass=0;strokeWidth=1;shadow=1;fillColor=#dae8fc;strokeColor=#6c8ebf;sketch=1;curveFitting=1;jiggle=2;fontColor=#666666;" parent="WIyWlLk6GJQsqaUBKTNV-1" vertex="1">
          <mxGeometry x="-188" y="255" width="120" height="40" as="geometry" />
        </mxCell>
        <mxCell id="QtHYeWqMQfSoIZGzqopW-5" value="主&lt;div&gt;进&lt;/div&gt;&lt;div&gt;程&lt;/div&gt;&lt;div&gt;处&lt;/div&gt;&lt;div&gt;理&lt;/div&gt;&lt;div&gt;load&lt;/div&gt;" style="rounded=0;whiteSpace=wrap;html=1;fillColor=none;strokeColor=none;sketch=1;curveFitting=1;jiggle=2;fontColor=#666666;" parent="WIyWlLk6GJQsqaUBKTNV-1" vertex="1">
          <mxGeometry x="-242" y="224" width="50" height="90" as="geometry" />
        </mxCell>
        <mxCell id="QtHYeWqMQfSoIZGzqopW-21" value="" style="edgeStyle=orthogonalEdgeStyle;rounded=0;orthogonalLoop=1;jettySize=auto;html=1;fontColor=#666666;" parent="WIyWlLk6GJQsqaUBKTNV-1" source="QtHYeWqMQfSoIZGzqopW-8" target="QtHYeWqMQfSoIZGzqopW-16" edge="1">
          <mxGeometry relative="1" as="geometry" />
        </mxCell>
        <mxCell id="QtHYeWqMQfSoIZGzqopW-83" style="edgeStyle=none;rounded=0;orthogonalLoop=1;jettySize=auto;html=1;sketch=1;curveFitting=1;jiggle=2;entryX=1.01;entryY=0.349;entryDx=0;entryDy=0;entryPerimeter=0;exitX=1.037;exitY=0.646;exitDx=0;exitDy=0;exitPerimeter=0;" parent="WIyWlLk6GJQsqaUBKTNV-1" source="QtHYeWqMQfSoIZGzqopW-5" target="QtHYeWqMQfSoIZGzqopW-77" edge="1">
          <mxGeometry relative="1" as="geometry" />
        </mxCell>
        <mxCell id="QtHYeWqMQfSoIZGzqopW-8" value="合并数据" style="rounded=1;whiteSpace=wrap;html=1;fontSize=12;glass=0;strokeWidth=1;shadow=1;fillColor=#dae8fc;strokeColor=#6c8ebf;sketch=1;curveFitting=1;jiggle=2;fontColor=#666666;" parent="WIyWlLk6GJQsqaUBKTNV-1" vertex="1">
          <mxGeometry x="-188" y="335" width="120" height="40" as="geometry" />
        </mxCell>
        <mxCell id="QtHYeWqMQfSoIZGzqopW-12" style="rounded=0;orthogonalLoop=1;jettySize=auto;html=1;exitX=0;exitY=0;exitDx=0;exitDy=0;entryX=1.007;entryY=0.022;entryDx=0;entryDy=0;entryPerimeter=0;sketch=1;curveFitting=1;jiggle=2;fontColor=#666666;" parent="WIyWlLk6GJQsqaUBKTNV-1" source="kSVlAso--FQVxlNCZ38y-0" target="QtHYeWqMQfSoIZGzqopW-11" edge="1">
          <mxGeometry relative="1" as="geometry" />
        </mxCell>
        <mxCell id="QtHYeWqMQfSoIZGzqopW-14" value="" style="rounded=0;whiteSpace=wrap;html=1;fillColor=none;sketch=1;curveFitting=1;jiggle=2;fontColor=#666666;" parent="WIyWlLk6GJQsqaUBKTNV-1" vertex="1">
          <mxGeometry x="-240" y="421" width="210" height="237" as="geometry" />
        </mxCell>
        <mxCell id="QtHYeWqMQfSoIZGzqopW-15" value="主&lt;div&gt;进&lt;/div&gt;&lt;div&gt;程&lt;/div&gt;&lt;div&gt;处&lt;/div&gt;&lt;div&gt;理&lt;/div&gt;&lt;div&gt;process&lt;/div&gt;" style="rounded=0;whiteSpace=wrap;html=1;fillColor=none;strokeColor=none;sketch=1;curveFitting=1;jiggle=2;fontColor=#666666;" parent="WIyWlLk6GJQsqaUBKTNV-1" vertex="1">
          <mxGeometry x="-239" y="465" width="50" height="90" as="geometry" />
        </mxCell>
        <mxCell id="QtHYeWqMQfSoIZGzqopW-19" style="edgeStyle=orthogonalEdgeStyle;rounded=0;orthogonalLoop=1;jettySize=auto;html=1;exitX=0.5;exitY=1;exitDx=0;exitDy=0;entryX=0.5;entryY=0;entryDx=0;entryDy=0;sketch=1;curveFitting=1;jiggle=2;fontColor=#666666;" parent="WIyWlLk6GJQsqaUBKTNV-1" source="QtHYeWqMQfSoIZGzqopW-16" target="QtHYeWqMQfSoIZGzqopW-17" edge="1">
          <mxGeometry relative="1" as="geometry" />
        </mxCell>
        <mxCell id="QtHYeWqMQfSoIZGzqopW-16" value="根据stage生成预处理和打印方法" style="rounded=1;whiteSpace=wrap;html=1;fontSize=12;glass=0;strokeWidth=1;shadow=1;fillColor=#dae8fc;strokeColor=#6c8ebf;sketch=1;curveFitting=1;jiggle=2;fontColor=#666666;" parent="WIyWlLk6GJQsqaUBKTNV-1" vertex="1">
          <mxGeometry x="-188" y="439" width="120" height="40" as="geometry" />
        </mxCell>
        <mxCell id="QtHYeWqMQfSoIZGzqopW-20" value="" style="edgeStyle=orthogonalEdgeStyle;rounded=0;orthogonalLoop=1;jettySize=auto;html=1;sketch=1;curveFitting=1;jiggle=2;fontColor=#666666;" parent="WIyWlLk6GJQsqaUBKTNV-1" source="QtHYeWqMQfSoIZGzqopW-17" target="QtHYeWqMQfSoIZGzqopW-18" edge="1">
          <mxGeometry relative="1" as="geometry" />
        </mxCell>
        <mxCell id="QtHYeWqMQfSoIZGzqopW-17" value="数据拼装,ID化" style="rounded=1;whiteSpace=wrap;html=1;fontSize=12;glass=0;strokeWidth=1;shadow=1;fillColor=#dae8fc;strokeColor=#6c8ebf;sketch=1;curveFitting=1;jiggle=2;fontColor=#666666;" parent="WIyWlLk6GJQsqaUBKTNV-1" vertex="1">
          <mxGeometry x="-188" y="510" width="120" height="40" as="geometry" />
        </mxCell>
        <mxCell id="QtHYeWqMQfSoIZGzqopW-18" value="打印一条数据样例" style="rounded=1;whiteSpace=wrap;html=1;fontSize=12;glass=0;strokeWidth=1;shadow=1;fillColor=#dae8fc;strokeColor=#6c8ebf;sketch=1;curveFitting=1;jiggle=2;fontColor=#666666;" parent="WIyWlLk6GJQsqaUBKTNV-1" vertex="1">
          <mxGeometry x="-188" y="580" width="120" height="40" as="geometry" />
        </mxCell>
        <mxCell id="QtHYeWqMQfSoIZGzqopW-38" style="rounded=0;orthogonalLoop=1;jettySize=auto;html=1;exitX=1;exitY=0;exitDx=0;exitDy=0;sketch=1;curveFitting=1;jiggle=2;" parent="WIyWlLk6GJQsqaUBKTNV-1" source="kSVlAso--FQVxlNCZ38y-2" target="QtHYeWqMQfSoIZGzqopW-37" edge="1">
          <mxGeometry relative="1" as="geometry" />
        </mxCell>
        <mxCell id="QtHYeWqMQfSoIZGzqopW-37" value="" style="rounded=0;whiteSpace=wrap;html=1;fillColor=none;sketch=1;curveFitting=1;jiggle=2;" parent="WIyWlLk6GJQsqaUBKTNV-1" vertex="1">
          <mxGeometry x="555" y="-67" width="210" height="627" as="geometry" />
        </mxCell>
        <mxCell id="QtHYeWqMQfSoIZGzqopW-24" value="" style="edgeStyle=orthogonalEdgeStyle;rounded=0;orthogonalLoop=1;jettySize=auto;html=1;fontColor=#666666;" parent="WIyWlLk6GJQsqaUBKTNV-1" source="QtHYeWqMQfSoIZGzqopW-22" target="QtHYeWqMQfSoIZGzqopW-23" edge="1">
          <mxGeometry relative="1" as="geometry" />
        </mxCell>
        <mxCell id="QtHYeWqMQfSoIZGzqopW-22" value="初始化参数" style="rounded=1;whiteSpace=wrap;html=1;fontSize=12;glass=0;strokeWidth=1;shadow=1;fillColor=#dae8fc;strokeColor=#6c8ebf;sketch=1;curveFitting=1;jiggle=2;fontColor=#666666;" parent="WIyWlLk6GJQsqaUBKTNV-1" vertex="1">
          <mxGeometry x="594" y="-50" width="120" height="40" as="geometry" />
        </mxCell>
        <mxCell id="QtHYeWqMQfSoIZGzqopW-26" value="" style="edgeStyle=orthogonalEdgeStyle;rounded=0;orthogonalLoop=1;jettySize=auto;html=1;fontColor=#666666;" parent="WIyWlLk6GJQsqaUBKTNV-1" source="QtHYeWqMQfSoIZGzqopW-23" target="QtHYeWqMQfSoIZGzqopW-25" edge="1">
          <mxGeometry relative="1" as="geometry" />
        </mxCell>
        <mxCell id="QtHYeWqMQfSoIZGzqopW-23" value="初始化config" style="rounded=1;whiteSpace=wrap;html=1;fontSize=12;glass=0;strokeWidth=1;shadow=1;fillColor=#dae8fc;strokeColor=#6c8ebf;sketch=1;curveFitting=1;jiggle=2;fontColor=#666666;" parent="WIyWlLk6GJQsqaUBKTNV-1" vertex="1">
          <mxGeometry x="594" y="27" width="120" height="40" as="geometry" />
        </mxCell>
        <mxCell id="QtHYeWqMQfSoIZGzqopW-25" value="patch config&lt;div&gt;(glm无额外设置）&lt;/div&gt;" style="rounded=1;whiteSpace=wrap;html=1;fontSize=12;glass=0;strokeWidth=1;shadow=1;fillColor=#dae8fc;strokeColor=#6c8ebf;sketch=1;curveFitting=1;jiggle=2;fontColor=#666666;" parent="WIyWlLk6GJQsqaUBKTNV-1" vertex="1">
          <mxGeometry x="594" y="104" width="120" height="40" as="geometry" />
        </mxCell>
        <mxCell id="QtHYeWqMQfSoIZGzqopW-34" value="" style="edgeStyle=orthogonalEdgeStyle;rounded=0;orthogonalLoop=1;jettySize=auto;html=1;" parent="WIyWlLk6GJQsqaUBKTNV-1" source="QtHYeWqMQfSoIZGzqopW-32" target="QtHYeWqMQfSoIZGzqopW-33" edge="1">
          <mxGeometry relative="1" as="geometry" />
        </mxCell>
        <mxCell id="QtHYeWqMQfSoIZGzqopW-32" value="load from_pretrained" style="rounded=1;whiteSpace=wrap;html=1;fontSize=12;glass=0;strokeWidth=1;shadow=1;fillColor=#dae8fc;strokeColor=#6c8ebf;sketch=1;curveFitting=1;jiggle=2;fontColor=#666666;" parent="WIyWlLk6GJQsqaUBKTNV-1" vertex="1">
          <mxGeometry x="594" y="182" width="120" height="40" as="geometry" />
        </mxCell>
        <mxCell id="QtHYeWqMQfSoIZGzqopW-36" value="" style="edgeStyle=orthogonalEdgeStyle;rounded=0;orthogonalLoop=1;jettySize=auto;html=1;" parent="WIyWlLk6GJQsqaUBKTNV-1" source="QtHYeWqMQfSoIZGzqopW-33" target="QtHYeWqMQfSoIZGzqopW-35" edge="1">
          <mxGeometry relative="1" as="geometry" />
        </mxCell>
        <mxCell id="QtHYeWqMQfSoIZGzqopW-33" value="patch model" style="rounded=1;whiteSpace=wrap;html=1;fontSize=12;glass=0;strokeWidth=1;shadow=1;fillColor=#dae8fc;strokeColor=#6c8ebf;sketch=1;curveFitting=1;jiggle=2;fontColor=#666666;" parent="WIyWlLk6GJQsqaUBKTNV-1" vertex="1">
          <mxGeometry x="594" y="259" width="120" height="40" as="geometry" />
        </mxCell>
        <mxCell id="QtHYeWqMQfSoIZGzqopW-43" value="" style="edgeStyle=orthogonalEdgeStyle;rounded=0;orthogonalLoop=1;jettySize=auto;html=1;" parent="WIyWlLk6GJQsqaUBKTNV-1" source="QtHYeWqMQfSoIZGzqopW-35" target="QtHYeWqMQfSoIZGzqopW-42" edge="1">
          <mxGeometry relative="1" as="geometry" />
        </mxCell>
        <mxCell id="QtHYeWqMQfSoIZGzqopW-35" value="add model tag(llama)" style="rounded=1;whiteSpace=wrap;html=1;fontSize=12;glass=0;strokeWidth=1;shadow=1;fillColor=#dae8fc;strokeColor=#6c8ebf;sketch=1;curveFitting=1;jiggle=2;fontColor=#666666;" parent="WIyWlLk6GJQsqaUBKTNV-1" vertex="1">
          <mxGeometry x="594" y="336" width="120" height="40" as="geometry" />
        </mxCell>
        <mxCell id="QtHYeWqMQfSoIZGzqopW-45" value="" style="edgeStyle=orthogonalEdgeStyle;rounded=0;orthogonalLoop=1;jettySize=auto;html=1;" parent="WIyWlLk6GJQsqaUBKTNV-1" source="QtHYeWqMQfSoIZGzqopW-42" target="QtHYeWqMQfSoIZGzqopW-44" edge="1">
          <mxGeometry relative="1" as="geometry" />
        </mxCell>
        <mxCell id="QtHYeWqMQfSoIZGzqopW-42" value="注册autoclass" style="rounded=1;whiteSpace=wrap;html=1;fontSize=12;glass=0;strokeWidth=1;shadow=1;fillColor=#dae8fc;strokeColor=#6c8ebf;sketch=1;curveFitting=1;jiggle=2;fontColor=#666666;" parent="WIyWlLk6GJQsqaUBKTNV-1" vertex="1">
          <mxGeometry x="594" y="415" width="120" height="40" as="geometry" />
        </mxCell>
        <mxCell id="QtHYeWqMQfSoIZGzqopW-44" value="根据类型处理&lt;span style=&quot;background-color: initial;&quot;&gt;adapter&lt;/span&gt;" style="rounded=1;whiteSpace=wrap;html=1;fontSize=12;glass=0;strokeWidth=1;shadow=1;fillColor=#dae8fc;strokeColor=#6c8ebf;sketch=1;curveFitting=1;jiggle=2;fontColor=#666666;" parent="WIyWlLk6GJQsqaUBKTNV-1" vertex="1">
          <mxGeometry x="594" y="495" width="120" height="40" as="geometry" />
        </mxCell>
        <mxCell id="QtHYeWqMQfSoIZGzqopW-46" value="自定义相关op" style="rounded=1;whiteSpace=wrap;html=1;fontSize=12;glass=0;strokeWidth=1;shadow=1;fillColor=#dae8fc;strokeColor=#6c8ebf;sketch=1;curveFitting=1;jiggle=2;fontColor=#666666;" parent="WIyWlLk6GJQsqaUBKTNV-1" vertex="1">
          <mxGeometry x="594" y="591" width="120" height="40" as="geometry" />
        </mxCell>
        <mxCell id="QtHYeWqMQfSoIZGzqopW-48" value="&lt;font style=&quot;font-size: 20px;&quot;&gt;主流程&lt;/font&gt;" style="rounded=0;whiteSpace=wrap;html=1;fillColor=none;strokeColor=none;" parent="WIyWlLk6GJQsqaUBKTNV-1" vertex="1">
          <mxGeometry x="150" y="60" width="120" height="40" as="geometry" />
        </mxCell>
        <mxCell id="QtHYeWqMQfSoIZGzqopW-53" value="" style="group" parent="WIyWlLk6GJQsqaUBKTNV-1" vertex="1" connectable="0">
          <mxGeometry x="-448" y="-125" width="155" height="140" as="geometry" />
        </mxCell>
        <mxCell id="QtHYeWqMQfSoIZGzqopW-52" value="" style="rounded=0;whiteSpace=wrap;html=1;fillColor=none;sketch=1;curveFitting=1;jiggle=2;fontColor=#666666;" parent="QtHYeWqMQfSoIZGzqopW-53" vertex="1">
          <mxGeometry width="155" height="140" as="geometry" />
        </mxCell>
        <mxCell id="QtHYeWqMQfSoIZGzqopW-51" value="" style="edgeStyle=orthogonalEdgeStyle;rounded=0;orthogonalLoop=1;jettySize=auto;html=1;sketch=1;curveFitting=1;jiggle=2;" parent="QtHYeWqMQfSoIZGzqopW-53" source="QtHYeWqMQfSoIZGzqopW-49" target="QtHYeWqMQfSoIZGzqopW-50" edge="1">
          <mxGeometry relative="1" as="geometry" />
        </mxCell>
        <mxCell id="QtHYeWqMQfSoIZGzqopW-49" value="增加停用词到special_tokens" style="rounded=1;whiteSpace=wrap;html=1;fontSize=12;glass=0;strokeWidth=1;shadow=1;fillColor=#dae8fc;strokeColor=#6c8ebf;sketch=1;curveFitting=1;jiggle=2;fontColor=#666666;" parent="QtHYeWqMQfSoIZGzqopW-53" vertex="1">
          <mxGeometry x="15" y="14" width="120" height="40" as="geometry" />
        </mxCell>
        <mxCell id="QtHYeWqMQfSoIZGzqopW-50" value="get_jinja_template&lt;div&gt;chatglm未用&lt;/div&gt;" style="rounded=1;whiteSpace=wrap;html=1;fontSize=12;glass=0;strokeWidth=1;shadow=1;fillColor=#dae8fc;strokeColor=#6c8ebf;sketch=1;curveFitting=1;jiggle=2;fontColor=#666666;" parent="QtHYeWqMQfSoIZGzqopW-53" vertex="1">
          <mxGeometry x="15" y="80" width="120" height="40" as="geometry" />
        </mxCell>
        <mxCell id="QtHYeWqMQfSoIZGzqopW-57" value="" style="rounded=0;whiteSpace=wrap;html=1;fillColor=none;sketch=1;curveFitting=1;jiggle=2;fontColor=#666666;container=0;" parent="WIyWlLk6GJQsqaUBKTNV-1" vertex="1">
          <mxGeometry x="-669" y="-120" width="155" height="290" as="geometry" />
        </mxCell>
        <mxCell id="QtHYeWqMQfSoIZGzqopW-58" value="" style="edgeStyle=orthogonalEdgeStyle;rounded=0;orthogonalLoop=1;jettySize=auto;html=1;sketch=1;curveFitting=1;jiggle=2;" parent="WIyWlLk6GJQsqaUBKTNV-1" source="QtHYeWqMQfSoIZGzqopW-59" target="QtHYeWqMQfSoIZGzqopW-60" edge="1">
          <mxGeometry relative="1" as="geometry" />
        </mxCell>
        <mxCell id="QtHYeWqMQfSoIZGzqopW-59" value="加载dataset_info.json" style="rounded=1;whiteSpace=wrap;html=1;fontSize=12;glass=0;strokeWidth=1;shadow=1;fillColor=#dae8fc;strokeColor=#6c8ebf;sketch=1;curveFitting=1;jiggle=2;fontColor=#666666;container=0;" parent="WIyWlLk6GJQsqaUBKTNV-1" vertex="1">
          <mxGeometry x="-654" y="-35" width="120" height="40" as="geometry" />
        </mxCell>
        <mxCell id="QtHYeWqMQfSoIZGzqopW-65" value="" style="edgeStyle=none;rounded=0;orthogonalLoop=1;jettySize=auto;html=1;" parent="WIyWlLk6GJQsqaUBKTNV-1" source="QtHYeWqMQfSoIZGzqopW-60" target="QtHYeWqMQfSoIZGzqopW-64" edge="1">
          <mxGeometry relative="1" as="geometry" />
        </mxCell>
        <mxCell id="QtHYeWqMQfSoIZGzqopW-60" value="初始化DatasetAttr" style="rounded=1;whiteSpace=wrap;html=1;fontSize=12;glass=0;strokeWidth=1;shadow=1;fillColor=#dae8fc;strokeColor=#6c8ebf;sketch=1;curveFitting=1;jiggle=2;fontColor=#666666;container=0;" parent="WIyWlLk6GJQsqaUBKTNV-1" vertex="1">
          <mxGeometry x="-654" y="31" width="120" height="40" as="geometry" />
        </mxCell>
        <mxCell id="QtHYeWqMQfSoIZGzqopW-61" value="" style="edgeStyle=orthogonalEdgeStyle;rounded=0;orthogonalLoop=1;jettySize=auto;html=1;sketch=1;curveFitting=1;jiggle=2;" parent="WIyWlLk6GJQsqaUBKTNV-1" source="QtHYeWqMQfSoIZGzqopW-62" target="QtHYeWqMQfSoIZGzqopW-59" edge="1">
          <mxGeometry relative="1" as="geometry">
            <mxPoint x="-591.5" y="-36" as="targetPoint" />
          </mxGeometry>
        </mxCell>
        <mxCell id="QtHYeWqMQfSoIZGzqopW-62" value="逐个数据" style="rounded=1;whiteSpace=wrap;html=1;fontSize=12;glass=0;strokeWidth=1;shadow=1;fillColor=#dae8fc;strokeColor=#6c8ebf;sketch=1;curveFitting=1;jiggle=2;fontColor=#666666;container=0;" parent="WIyWlLk6GJQsqaUBKTNV-1" vertex="1">
          <mxGeometry x="-654" y="-102" width="120" height="40" as="geometry" />
        </mxCell>
        <mxCell id="QtHYeWqMQfSoIZGzqopW-64" value="形成DataSetAttrList" style="rounded=1;whiteSpace=wrap;html=1;fontSize=12;glass=0;strokeWidth=1;shadow=1;fillColor=#dae8fc;strokeColor=#6c8ebf;sketch=1;curveFitting=1;jiggle=2;fontColor=#666666;container=0;" parent="WIyWlLk6GJQsqaUBKTNV-1" vertex="1">
          <mxGeometry x="-654" y="110" width="120" height="40" as="geometry" />
        </mxCell>
        <mxCell id="QtHYeWqMQfSoIZGzqopW-81" value="" style="group" parent="WIyWlLk6GJQsqaUBKTNV-1" vertex="1" connectable="0">
          <mxGeometry x="-727" y="206" width="847" height="345" as="geometry" />
        </mxCell>
        <mxCell id="QtHYeWqMQfSoIZGzqopW-77" value="" style="rounded=0;whiteSpace=wrap;html=1;fillColor=none;sketch=1;curveFitting=1;jiggle=2;fontColor=#666666;container=0;" parent="QtHYeWqMQfSoIZGzqopW-81" vertex="1">
          <mxGeometry width="155" height="345" as="geometry" />
        </mxCell>
        <mxCell id="QtHYeWqMQfSoIZGzqopW-72" value="" style="edgeStyle=none;rounded=0;orthogonalLoop=1;jettySize=auto;html=1;sketch=1;curveFitting=1;jiggle=2;" parent="QtHYeWqMQfSoIZGzqopW-81" source="QtHYeWqMQfSoIZGzqopW-68" target="QtHYeWqMQfSoIZGzqopW-71" edge="1">
          <mxGeometry relative="1" as="geometry" />
        </mxCell>
        <mxCell id="QtHYeWqMQfSoIZGzqopW-68" value="形成文件列表" style="rounded=1;whiteSpace=wrap;html=1;fontSize=12;glass=0;strokeWidth=1;shadow=1;fillColor=#dae8fc;strokeColor=#6c8ebf;sketch=1;curveFitting=1;jiggle=2;fontColor=#666666;container=0;" parent="QtHYeWqMQfSoIZGzqopW-81" vertex="1">
          <mxGeometry x="20" y="21.5" width="120" height="40" as="geometry" />
        </mxCell>
        <mxCell id="QtHYeWqMQfSoIZGzqopW-74" value="" style="edgeStyle=none;rounded=0;orthogonalLoop=1;jettySize=auto;html=1;sketch=1;curveFitting=1;jiggle=2;" parent="QtHYeWqMQfSoIZGzqopW-81" source="QtHYeWqMQfSoIZGzqopW-71" target="QtHYeWqMQfSoIZGzqopW-73" edge="1">
          <mxGeometry relative="1" as="geometry" />
        </mxCell>
        <mxCell id="QtHYeWqMQfSoIZGzqopW-71" value="load_dataset" style="rounded=1;whiteSpace=wrap;html=1;fontSize=12;glass=0;strokeWidth=1;shadow=1;fillColor=#dae8fc;strokeColor=#6c8ebf;sketch=1;curveFitting=1;jiggle=2;fontColor=#666666;container=0;" parent="QtHYeWqMQfSoIZGzqopW-81" vertex="1">
          <mxGeometry x="20" y="88" width="120" height="40" as="geometry" />
        </mxCell>
        <mxCell id="QtHYeWqMQfSoIZGzqopW-76" value="" style="edgeStyle=none;rounded=0;orthogonalLoop=1;jettySize=auto;html=1;sketch=1;curveFitting=1;jiggle=2;" parent="QtHYeWqMQfSoIZGzqopW-81" source="QtHYeWqMQfSoIZGzqopW-73" target="QtHYeWqMQfSoIZGzqopW-75" edge="1">
          <mxGeometry relative="1" as="geometry" />
        </mxCell>
        <mxCell id="QtHYeWqMQfSoIZGzqopW-73" value="选取样本数量" style="rounded=1;whiteSpace=wrap;html=1;fontSize=12;glass=0;strokeWidth=1;shadow=1;fillColor=#dae8fc;strokeColor=#6c8ebf;sketch=1;curveFitting=1;jiggle=2;fontColor=#666666;container=0;" parent="QtHYeWqMQfSoIZGzqopW-81" vertex="1">
          <mxGeometry x="20" y="155" width="120" height="40" as="geometry" />
        </mxCell>
        <mxCell id="QtHYeWqMQfSoIZGzqopW-80" style="edgeStyle=none;rounded=0;orthogonalLoop=1;jettySize=auto;html=1;exitX=0.5;exitY=1;exitDx=0;exitDy=0;entryX=0.5;entryY=0;entryDx=0;entryDy=0;sketch=1;curveFitting=1;jiggle=2;" parent="QtHYeWqMQfSoIZGzqopW-81" source="QtHYeWqMQfSoIZGzqopW-75" target="QtHYeWqMQfSoIZGzqopW-79" edge="1">
          <mxGeometry relative="1" as="geometry" />
        </mxCell>
        <mxCell id="QtHYeWqMQfSoIZGzqopW-75" value="输入数据进行格式化" style="rounded=1;whiteSpace=wrap;html=1;fontSize=12;glass=0;strokeWidth=1;shadow=1;fillColor=#dae8fc;strokeColor=#6c8ebf;sketch=1;curveFitting=1;jiggle=2;fontColor=#666666;container=0;" parent="QtHYeWqMQfSoIZGzqopW-81" vertex="1">
          <mxGeometry x="20" y="219" width="120" height="40" as="geometry" />
        </mxCell>
        <mxCell id="QtHYeWqMQfSoIZGzqopW-79" value="合并数据" style="rounded=1;whiteSpace=wrap;html=1;fontSize=12;glass=0;strokeWidth=1;shadow=1;fillColor=#dae8fc;strokeColor=#6c8ebf;sketch=1;curveFitting=1;jiggle=2;fontColor=#666666;container=0;" parent="QtHYeWqMQfSoIZGzqopW-81" vertex="1">
          <mxGeometry x="20" y="290" width="120" height="40" as="geometry" />
        </mxCell>
        <mxCell id="QtHYeWqMQfSoIZGzqopW-121" value="" style="edgeStyle=none;rounded=0;orthogonalLoop=1;jettySize=auto;html=1;sketch=1;curveFitting=1;jiggle=2;" parent="WIyWlLk6GJQsqaUBKTNV-1" source="QtHYeWqMQfSoIZGzqopW-84" target="QtHYeWqMQfSoIZGzqopW-120" edge="1">
          <mxGeometry relative="1" as="geometry" />
        </mxCell>
        <mxCell id="QtHYeWqMQfSoIZGzqopW-84" value="构建prompt,response对" style="rounded=1;whiteSpace=wrap;html=1;fontSize=12;glass=0;strokeWidth=1;shadow=1;fillColor=#dae8fc;strokeColor=#6c8ebf;sketch=1;curveFitting=1;jiggle=2;fontColor=#666666;container=0;" parent="WIyWlLk6GJQsqaUBKTNV-1" vertex="1">
          <mxGeometry x="-500" y="502" width="120" height="40" as="geometry" />
        </mxCell>
        <mxCell id="QtHYeWqMQfSoIZGzqopW-90" value="" style="edgeStyle=none;rounded=0;orthogonalLoop=1;jettySize=auto;html=1;sketch=1;curveFitting=1;jiggle=2;" parent="WIyWlLk6GJQsqaUBKTNV-1" source="QtHYeWqMQfSoIZGzqopW-85" target="QtHYeWqMQfSoIZGzqopW-89" edge="1">
          <mxGeometry relative="1" as="geometry" />
        </mxCell>
        <mxCell id="QtHYeWqMQfSoIZGzqopW-94" value="" style="edgeStyle=none;rounded=0;orthogonalLoop=1;jettySize=auto;html=1;sketch=1;curveFitting=1;jiggle=2;" parent="WIyWlLk6GJQsqaUBKTNV-1" source="QtHYeWqMQfSoIZGzqopW-85" target="QtHYeWqMQfSoIZGzqopW-93" edge="1">
          <mxGeometry relative="1" as="geometry" />
        </mxCell>
        <mxCell id="QtHYeWqMQfSoIZGzqopW-85" value="第一轮构建system提示词" style="rounded=1;whiteSpace=wrap;html=1;fontSize=12;glass=0;strokeWidth=1;shadow=1;fillColor=#dae8fc;strokeColor=#6c8ebf;sketch=1;curveFitting=1;jiggle=2;fontColor=#666666;container=0;" parent="WIyWlLk6GJQsqaUBKTNV-1" vertex="1">
          <mxGeometry x="-500" y="757" width="120" height="40" as="geometry" />
        </mxCell>
        <mxCell id="QtHYeWqMQfSoIZGzqopW-89" value="Sytem Formator:StringFormatter(slots=[{&#39;token&#39;: &#39;[gMASK]&#39;}, {&#39;token&#39;: &#39;sop&#39;}, &#39;{{content}}&#39;], tool_format=None)" style="whiteSpace=wrap;html=1;fillColor=#dae8fc;strokeColor=#6c8ebf;fontColor=#666666;rounded=1;glass=0;strokeWidth=1;shadow=1;sketch=1;curveFitting=1;jiggle=2;" parent="WIyWlLk6GJQsqaUBKTNV-1" vertex="1">
          <mxGeometry x="-910" y="712.5" width="310" height="85" as="geometry" />
        </mxCell>
        <mxCell id="QtHYeWqMQfSoIZGzqopW-91" value="slot格式：{‘token&#39;:&#39;aaa&#39;,}, 或者是str" style="whiteSpace=wrap;html=1;fillColor=#dae8fc;strokeColor=#6c8ebf;fontColor=#666666;rounded=1;glass=0;strokeWidth=1;shadow=1;sketch=1;curveFitting=1;jiggle=2;" parent="WIyWlLk6GJQsqaUBKTNV-1" vertex="1">
          <mxGeometry x="-880" y="607.5" width="260" height="85" as="geometry" />
        </mxCell>
        <mxCell id="QtHYeWqMQfSoIZGzqopW-96" value="" style="edgeStyle=none;rounded=0;orthogonalLoop=1;jettySize=auto;html=1;sketch=1;curveFitting=1;jiggle=2;" parent="WIyWlLk6GJQsqaUBKTNV-1" source="QtHYeWqMQfSoIZGzqopW-93" target="QtHYeWqMQfSoIZGzqopW-95" edge="1">
          <mxGeometry relative="1" as="geometry" />
        </mxCell>
        <mxCell id="QtHYeWqMQfSoIZGzqopW-98" value="" style="edgeStyle=none;rounded=0;orthogonalLoop=1;jettySize=auto;html=1;sketch=1;curveFitting=1;jiggle=2;" parent="WIyWlLk6GJQsqaUBKTNV-1" source="QtHYeWqMQfSoIZGzqopW-93" target="QtHYeWqMQfSoIZGzqopW-97" edge="1">
          <mxGeometry relative="1" as="geometry" />
        </mxCell>
        <mxCell id="QtHYeWqMQfSoIZGzqopW-93" value="拼接user prompt" style="rounded=1;whiteSpace=wrap;html=1;fontSize=12;glass=0;strokeWidth=1;shadow=1;fillColor=#dae8fc;strokeColor=#6c8ebf;sketch=1;curveFitting=1;jiggle=2;fontColor=#666666;container=0;" parent="WIyWlLk6GJQsqaUBKTNV-1" vertex="1">
          <mxGeometry x="-500" y="885" width="120" height="40" as="geometry" />
        </mxCell>
        <mxCell id="QtHYeWqMQfSoIZGzqopW-95" value="[{&#39;token&#39;: &#39;&amp;lt;|user|&amp;gt;&#39;}, &#39;\n&#39;, &#39;保持健康的三个提示。&#39;, {&#39;token&#39;: &#39;&amp;lt;|assistant|&amp;gt;&#39;}]" style="whiteSpace=wrap;html=1;fillColor=#dae8fc;strokeColor=#6c8ebf;fontColor=#666666;rounded=1;glass=0;strokeWidth=1;shadow=1;sketch=1;curveFitting=1;jiggle=2;" parent="WIyWlLk6GJQsqaUBKTNV-1" vertex="1">
          <mxGeometry x="-920" y="849" width="310" height="60" as="geometry" />
        </mxCell>
        <mxCell id="QtHYeWqMQfSoIZGzqopW-100" value="" style="edgeStyle=none;rounded=0;orthogonalLoop=1;jettySize=auto;html=1;sketch=1;curveFitting=1;jiggle=2;" parent="WIyWlLk6GJQsqaUBKTNV-1" source="QtHYeWqMQfSoIZGzqopW-97" target="QtHYeWqMQfSoIZGzqopW-99" edge="1">
          <mxGeometry relative="1" as="geometry" />
        </mxCell>
        <mxCell id="QtHYeWqMQfSoIZGzqopW-104" value="" style="edgeStyle=none;rounded=0;orthogonalLoop=1;jettySize=auto;html=1;entryX=1;entryY=0.5;entryDx=0;entryDy=0;sketch=1;curveFitting=1;jiggle=2;" parent="WIyWlLk6GJQsqaUBKTNV-1" source="QtHYeWqMQfSoIZGzqopW-97" target="QtHYeWqMQfSoIZGzqopW-119" edge="1">
          <mxGeometry relative="1" as="geometry" />
        </mxCell>
        <mxCell id="QtHYeWqMQfSoIZGzqopW-97" value="input id化" style="rounded=1;whiteSpace=wrap;html=1;fontSize=12;glass=0;strokeWidth=1;shadow=1;fillColor=#dae8fc;strokeColor=#6c8ebf;sketch=1;curveFitting=1;jiggle=2;fontColor=#666666;container=0;" parent="WIyWlLk6GJQsqaUBKTNV-1" vertex="1">
          <mxGeometry x="-500" y="1012" width="120" height="40" as="geometry" />
        </mxCell>
        <mxCell id="QtHYeWqMQfSoIZGzqopW-102" value="" style="edgeStyle=none;rounded=0;orthogonalLoop=1;jettySize=auto;html=1;sketch=1;curveFitting=1;jiggle=2;" parent="WIyWlLk6GJQsqaUBKTNV-1" source="QtHYeWqMQfSoIZGzqopW-99" target="QtHYeWqMQfSoIZGzqopW-101" edge="1">
          <mxGeometry relative="1" as="geometry" />
        </mxCell>
        <mxCell id="QtHYeWqMQfSoIZGzqopW-127" value="" style="edgeStyle=none;rounded=0;orthogonalLoop=1;jettySize=auto;html=1;sketch=1;curveFitting=1;jiggle=2;" parent="WIyWlLk6GJQsqaUBKTNV-1" source="QtHYeWqMQfSoIZGzqopW-99" target="QtHYeWqMQfSoIZGzqopW-126" edge="1">
          <mxGeometry relative="1" as="geometry" />
        </mxCell>
        <mxCell id="QtHYeWqMQfSoIZGzqopW-99" value="构建response&lt;div&gt;并id化&lt;/div&gt;" style="rounded=1;whiteSpace=wrap;html=1;fontSize=12;glass=0;strokeWidth=1;shadow=1;fillColor=#dae8fc;strokeColor=#6c8ebf;sketch=1;curveFitting=1;jiggle=2;fontColor=#666666;container=0;" parent="WIyWlLk6GJQsqaUBKTNV-1" vertex="1">
          <mxGeometry x="-500" y="1140" width="120" height="40" as="geometry" />
        </mxCell>
        <mxCell id="QtHYeWqMQfSoIZGzqopW-101" value="[&#39;\n&#39;, &#39;{{content}}&#39;]" style="whiteSpace=wrap;html=1;fillColor=#dae8fc;strokeColor=#6c8ebf;fontColor=#666666;rounded=1;glass=0;strokeWidth=1;shadow=1;sketch=1;curveFitting=1;jiggle=2;" parent="WIyWlLk6GJQsqaUBKTNV-1" vertex="1">
          <mxGeometry x="-800" y="1143" width="180" height="60" as="geometry" />
        </mxCell>
        <mxCell id="QtHYeWqMQfSoIZGzqopW-106" value="" style="edgeStyle=none;rounded=0;orthogonalLoop=1;jettySize=auto;html=1;sketch=1;curveFitting=1;jiggle=2;" parent="WIyWlLk6GJQsqaUBKTNV-1" source="QtHYeWqMQfSoIZGzqopW-103" target="QtHYeWqMQfSoIZGzqopW-105" edge="1">
          <mxGeometry relative="1" as="geometry" />
        </mxCell>
        <mxCell id="QtHYeWqMQfSoIZGzqopW-103" value="str 直接id化" style="rounded=1;whiteSpace=wrap;html=1;fontSize=12;glass=0;strokeWidth=1;shadow=1;fillColor=#dae8fc;strokeColor=#6c8ebf;sketch=1;curveFitting=1;jiggle=2;fontColor=#666666;container=0;" parent="WIyWlLk6GJQsqaUBKTNV-1" vertex="1">
          <mxGeometry x="-760" y="948" width="120" height="40" as="geometry" />
        </mxCell>
        <mxCell id="QtHYeWqMQfSoIZGzqopW-105" value="dict取 token字段" style="rounded=1;whiteSpace=wrap;html=1;fontSize=12;glass=0;strokeWidth=1;shadow=1;fillColor=#dae8fc;strokeColor=#6c8ebf;sketch=1;curveFitting=1;jiggle=2;fontColor=#666666;container=0;" parent="WIyWlLk6GJQsqaUBKTNV-1" vertex="1">
          <mxGeometry x="-760" y="1038" width="120" height="40" as="geometry" />
        </mxCell>
        <mxCell id="QtHYeWqMQfSoIZGzqopW-119" value="" style="rounded=0;whiteSpace=wrap;html=1;fillColor=none;sketch=1;curveFitting=1;jiggle=2;" parent="WIyWlLk6GJQsqaUBKTNV-1" vertex="1">
          <mxGeometry x="-780" y="934" width="160" height="160" as="geometry" />
        </mxCell>
        <mxCell id="QtHYeWqMQfSoIZGzqopW-122" value="" style="edgeStyle=none;rounded=0;orthogonalLoop=1;jettySize=auto;html=1;sketch=1;curveFitting=1;jiggle=2;" parent="WIyWlLk6GJQsqaUBKTNV-1" source="QtHYeWqMQfSoIZGzqopW-120" target="QtHYeWqMQfSoIZGzqopW-85" edge="1">
          <mxGeometry relative="1" as="geometry" />
        </mxCell>
        <mxCell id="QtHYeWqMQfSoIZGzqopW-120" value="需要的话拼接分割符" style="rounded=1;whiteSpace=wrap;html=1;fontSize=12;glass=0;strokeWidth=1;shadow=1;fillColor=#dae8fc;strokeColor=#6c8ebf;sketch=1;curveFitting=1;jiggle=2;fontColor=#666666;container=0;" parent="WIyWlLk6GJQsqaUBKTNV-1" vertex="1">
          <mxGeometry x="-500" y="630" width="120" height="40" as="geometry" />
        </mxCell>
        <mxCell id="QtHYeWqMQfSoIZGzqopW-125" value="多轮" style="rounded=0;whiteSpace=wrap;html=1;fillColor=none;strokeColor=none;" parent="WIyWlLk6GJQsqaUBKTNV-1" vertex="1">
          <mxGeometry x="-360" y="934" width="20" height="60" as="geometry" />
        </mxCell>
        <mxCell id="QtHYeWqMQfSoIZGzqopW-130" value="" style="edgeStyle=none;rounded=0;orthogonalLoop=1;jettySize=auto;html=1;sketch=1;curveFitting=1;jiggle=2;" parent="WIyWlLk6GJQsqaUBKTNV-1" source="QtHYeWqMQfSoIZGzqopW-126" target="QtHYeWqMQfSoIZGzqopW-129" edge="1">
          <mxGeometry relative="1" as="geometry" />
        </mxCell>
        <mxCell id="QtHYeWqMQfSoIZGzqopW-126" value="构建多轮问答对" style="rounded=1;whiteSpace=wrap;html=1;fontSize=12;glass=0;strokeWidth=1;shadow=1;fillColor=#dae8fc;strokeColor=#6c8ebf;sketch=1;curveFitting=1;jiggle=2;fontColor=#666666;container=0;" parent="WIyWlLk6GJQsqaUBKTNV-1" vertex="1">
          <mxGeometry x="-500" y="1280" width="120" height="40" as="geometry" />
        </mxCell>
        <mxCell id="QtHYeWqMQfSoIZGzqopW-132" value="" style="edgeStyle=none;rounded=0;orthogonalLoop=1;jettySize=auto;html=1;sketch=1;curveFitting=1;jiggle=2;" parent="WIyWlLk6GJQsqaUBKTNV-1" source="QtHYeWqMQfSoIZGzqopW-129" target="QtHYeWqMQfSoIZGzqopW-131" edge="1">
          <mxGeometry relative="1" as="geometry" />
        </mxCell>
        <mxCell id="QtHYeWqMQfSoIZGzqopW-129" value="最后一轮之前转化为&lt;div&gt;prompts&lt;/div&gt;" style="rounded=1;whiteSpace=wrap;html=1;fontSize=12;glass=0;strokeWidth=1;shadow=1;fillColor=#dae8fc;strokeColor=#6c8ebf;sketch=1;curveFitting=1;jiggle=2;fontColor=#666666;container=0;" parent="WIyWlLk6GJQsqaUBKTNV-1" vertex="1">
          <mxGeometry x="-500" y="1378" width="120" height="40" as="geometry" />
        </mxCell>
        <mxCell id="BguwJV4cng2hCBCo9PV4-1" value="" style="edgeStyle=none;rounded=0;orthogonalLoop=1;jettySize=auto;html=1;" edge="1" parent="WIyWlLk6GJQsqaUBKTNV-1" source="QtHYeWqMQfSoIZGzqopW-131" target="BguwJV4cng2hCBCo9PV4-0">
          <mxGeometry relative="1" as="geometry" />
        </mxCell>
        <mxCell id="QtHYeWqMQfSoIZGzqopW-131" value="最后一轮user拼接到prompt" style="rounded=1;whiteSpace=wrap;html=1;fontSize=12;glass=0;strokeWidth=1;shadow=1;fillColor=#dae8fc;strokeColor=#6c8ebf;sketch=1;curveFitting=1;jiggle=2;fontColor=#666666;container=0;" parent="WIyWlLk6GJQsqaUBKTNV-1" vertex="1">
          <mxGeometry x="-500" y="1454" width="120" height="40" as="geometry" />
        </mxCell>
        <mxCell id="QtHYeWqMQfSoIZGzqopW-141" style="edgeStyle=none;rounded=0;orthogonalLoop=1;jettySize=auto;html=1;exitX=0;exitY=0.5;exitDx=0;exitDy=0;entryX=1.025;entryY=0.531;entryDx=0;entryDy=0;entryPerimeter=0;" parent="WIyWlLk6GJQsqaUBKTNV-1" source="QtHYeWqMQfSoIZGzqopW-16" target="QtHYeWqMQfSoIZGzqopW-124" edge="1">
          <mxGeometry relative="1" as="geometry" />
        </mxCell>
        <mxCell id="BguwJV4cng2hCBCo9PV4-2" value="预处理针对接受&lt;div&gt;和&lt;/div&gt;&lt;div&gt;拒绝选项分别处理&lt;/div&gt;" style="edgeLabel;html=1;align=center;verticalAlign=middle;resizable=0;points=[];" vertex="1" connectable="0" parent="QtHYeWqMQfSoIZGzqopW-141">
          <mxGeometry x="0.0449" y="2" relative="1" as="geometry">
            <mxPoint y="23" as="offset" />
          </mxGeometry>
        </mxCell>
        <mxCell id="QtHYeWqMQfSoIZGzqopW-143" value="转化为单轮" style="rounded=0;whiteSpace=wrap;html=1;fillColor=none;strokeColor=none;" parent="WIyWlLk6GJQsqaUBKTNV-1" vertex="1">
          <mxGeometry x="-360" y="1434" width="20" height="60" as="geometry" />
        </mxCell>
        <mxCell id="QtHYeWqMQfSoIZGzqopW-144" style="edgeStyle=none;rounded=0;orthogonalLoop=1;jettySize=auto;html=1;sketch=1;curveFitting=1;jiggle=2;entryX=0.994;entryY=0.353;entryDx=0;entryDy=0;entryPerimeter=0;exitX=0;exitY=0.5;exitDx=0;exitDy=0;" parent="WIyWlLk6GJQsqaUBKTNV-1" source="QtHYeWqMQfSoIZGzqopW-8" target="QtHYeWqMQfSoIZGzqopW-77" edge="1">
          <mxGeometry relative="1" as="geometry">
            <mxPoint x="-180" y="292" as="sourcePoint" />
            <mxPoint x="-560" y="336" as="targetPoint" />
          </mxGeometry>
        </mxCell>
        <mxCell id="BguwJV4cng2hCBCo9PV4-4" value="" style="edgeStyle=none;rounded=0;orthogonalLoop=1;jettySize=auto;html=1;" edge="1" parent="WIyWlLk6GJQsqaUBKTNV-1" source="BguwJV4cng2hCBCo9PV4-0" target="BguwJV4cng2hCBCo9PV4-3">
          <mxGeometry relative="1" as="geometry" />
        </mxCell>
        <mxCell id="BguwJV4cng2hCBCo9PV4-0" value="最后一轮response&lt;div&gt;作为anser&lt;/div&gt;" style="rounded=1;whiteSpace=wrap;html=1;fontSize=12;glass=0;strokeWidth=1;shadow=1;fillColor=#dae8fc;strokeColor=#6c8ebf;sketch=1;curveFitting=1;jiggle=2;fontColor=#666666;container=0;" vertex="1" parent="WIyWlLk6GJQsqaUBKTNV-1">
          <mxGeometry x="-500" y="1530" width="120" height="40" as="geometry" />
        </mxCell>
        <mxCell id="BguwJV4cng2hCBCo9PV4-6" value="" style="edgeStyle=none;rounded=0;orthogonalLoop=1;jettySize=auto;html=1;" edge="1" parent="WIyWlLk6GJQsqaUBKTNV-1" source="BguwJV4cng2hCBCo9PV4-3" target="BguwJV4cng2hCBCo9PV4-5">
          <mxGeometry relative="1" as="geometry" />
        </mxCell>
        <mxCell id="BguwJV4cng2hCBCo9PV4-3" value="接受和拒绝分别添加&lt;div&gt;eos&lt;/div&gt;" style="rounded=1;whiteSpace=wrap;html=1;fontSize=12;glass=0;strokeWidth=1;shadow=1;fillColor=#dae8fc;strokeColor=#6c8ebf;sketch=1;curveFitting=1;jiggle=2;fontColor=#666666;container=0;" vertex="1" parent="WIyWlLk6GJQsqaUBKTNV-1">
          <mxGeometry x="-500" y="1620" width="120" height="40" as="geometry" />
        </mxCell>
        <mxCell id="BguwJV4cng2hCBCo9PV4-5" value="&lt;div&gt;model_inputs[&quot;prompt_ids&quot;].append(prompt_ids)&lt;/div&gt;&lt;div&gt;model_inputs[&quot;chosen_ids&quot;].append(chosen_ids)&lt;/div&gt;&lt;div&gt;model_inputs[&quot;rejected_ids&quot;].append(rejected_ids)&lt;/div&gt;" style="whiteSpace=wrap;html=1;fillColor=#dae8fc;strokeColor=#6c8ebf;fontColor=#666666;rounded=1;glass=0;strokeWidth=1;shadow=1;sketch=1;curveFitting=1;jiggle=2;" vertex="1" parent="WIyWlLk6GJQsqaUBKTNV-1">
          <mxGeometry x="-595" y="1716" width="310" height="60" as="geometry" />
        </mxCell>
        <mxCell id="BguwJV4cng2hCBCo9PV4-7" value="{&quot;prompt&quot;: [], &quot;response&quot;: [], &quot;system&quot;: [], &quot;tools&quot;: []}" style="whiteSpace=wrap;html=1;fillColor=#dae8fc;strokeColor=#6c8ebf;fontColor=#666666;rounded=1;glass=0;strokeWidth=1;shadow=1;sketch=1;curveFitting=1;jiggle=2;" vertex="1" parent="WIyWlLk6GJQsqaUBKTNV-1">
          <mxGeometry x="-1090" y="421" width="303" height="45" as="geometry" />
        </mxCell>
        <mxCell id="BguwJV4cng2hCBCo9PV4-8" value="" style="edgeStyle=none;rounded=0;orthogonalLoop=1;jettySize=auto;html=1;" edge="1" parent="WIyWlLk6GJQsqaUBKTNV-1" source="QtHYeWqMQfSoIZGzqopW-75" target="BguwJV4cng2hCBCo9PV4-7">
          <mxGeometry relative="1" as="geometry" />
        </mxCell>
        <mxCell id="BguwJV4cng2hCBCo9PV4-9" value="&lt;div&gt;prompt_ids:&lt;/div&gt;&lt;div&gt;[64790, 64792, 64795, 30910, 13, 30910, 35318, 54645, 54773, 54785, 31514, 64796]&lt;/div&gt;&lt;div&gt;prompt:&lt;/div&gt;&lt;div&gt;[gMASK] sop &amp;lt;|user|&amp;gt;&amp;nbsp;&lt;/div&gt;&lt;div&gt;&amp;nbsp;什么是三原色？ &amp;lt;|assistant|&amp;gt;&lt;/div&gt;&lt;div&gt;chosen_ids:&lt;/div&gt;&lt;div&gt;[30910, 13, 36755, 54773, 54785, 54532, 54997, 31201, 55791, 31201, 55131, 31155, 31704, 33692, 34947, 54773, 54785, 31123, 31659, 32542, 31727, 31662, 34496, 31722, 33692, 54556, 32991, 31123, 31754, 31722, 33692, 33614, 31662, 54687, 32542, 55194, 31723, 32938, 33597, 36962, 31155, 54534, 32419, 42394, 54639, 54785, 49149, 31123, 54773, 54785, 54532, 32632, 31201, 32658, 54542, 35798, 359, 30951, 6680, 33217, 2]&lt;/div&gt;&lt;div&gt;chosen:&lt;/div&gt;&lt;div&gt;&lt;br&gt;&lt;/div&gt;&lt;div&gt;&amp;nbsp;三原色是红、蓝、黄。这些颜色被称为原色，因为它们不能通过混合其他颜色来创建，所有其他颜色都可以通过将它们按不同比例组合而成。在用于光的加色系统中，原色是红色、绿色和蓝色 (RGB)。&lt;/div&gt;&lt;div&gt;rejected_ids:&lt;/div&gt;&lt;div&gt;[30910, 13, 30910, 32632, 31201, 36538, 54542, 32658, 31155, 2]&lt;/div&gt;&lt;div&gt;rejected:&lt;/div&gt;&lt;div&gt;&lt;br&gt;&lt;/div&gt;&lt;div&gt;&amp;nbsp;红色、黄色和绿色。&lt;/div&gt;" style="rounded=0;whiteSpace=wrap;html=1;align=left;sketch=1;curveFitting=1;jiggle=2;" vertex="1" parent="WIyWlLk6GJQsqaUBKTNV-1">
          <mxGeometry x="-175" y="960" width="690" height="320" as="geometry" />
        </mxCell>
      </root>
    </mxGraphModel>
  </diagram>
</mxfile>
